# xmcd
#
# Track frame offsets:
#	150
#	15294
#	32231
#	54815
#	76709
#	94633
#	114547
#	137259
#	154530
#
# Disc length: 2301 seconds
#
# Revision: 2
# Processed by: cddbd v1.5.2PL0 Copyright (c) Steve Scherf et al.
# Submitted via: EasyCDDAExtractor 15.3.0.1
#
DISCID=5208fb09
DTITLE=Lissette - Empty Room
DYEAR=2002
DGENRE=Pop
TTITLE0=The Pledge
TTITLE1=Take Your Time This Time
TTITLE2=I'm In Love
TTITLE3=Mama
TTITLE4=Every Time I See Your Picture I Cry
TTITLE5=The Perfect Crime
TTITLE6=Something's Wrong
TTITLE7=Empty Room
TTITLE8=Obsession
EXTD=
EXTT0=
EXTT1=
EXTT2=
EXTT3=
EXTT4=
EXTT5=
EXTT6=
EXTT7=
EXTT8=
PLAYORDER=
